<svg xmlns="http://www.w3.org/2000/svg" width="32" height="32" version="1" viewBox="0 0 32 32"><g transform="translate(1.032 -1.795)"><path fill="#ffcc0f" d="m 30.967797,17.794915 c 0,8.835821 -7.16418,16 -16,16 -8.8358213,0 -16.0000004,-7.164179 -16.0000004,-16 0,-8.8358206 7.1641791,-15.9999997 16.0000004,-15.9999997 8.83582,0 16,7.1641791 16,15.9999997 l 0,0 z"/><path fill="#fff" d="M 22.110654,13.794915 H 7.8249381 c -0.8979593,0 -1.5510206,0.734694 -1.5510206,1.551021 0,0.08163 0,0.244898 0.081633,0.326531 l 0.081633,-0.08163 h 0.081633 17.0612265 0.08163 l 0,0 v -0.326531 c 0,-0.816327 -0.734694,-1.469388 -1.551021,-1.469388 l 0,0 0,0 z m 1.551021,2.448979 H 23.580044 6.4371848 6.3555521 l 0,0 c -0.734694,0.08163 -1.3877553,0.734694 -1.3877553,1.551021 0,0.816327 0.5714287,1.387755 1.3061227,1.551021 h 0.081633 0.081633 16.8979615 0.08163 c 0.897958,0 1.55102,-0.734694 1.55102,-1.551021 0,-0.816327 -0.489796,-1.387755 -1.306122,-1.551021 l 0,0 0,0 0,0 z M 8.5596321,17.223486 c 0.4897959,0 0.8163266,0.163266 0.9795919,0.244898 0.1632654,0.163266 0.1632654,0.163266 0.3265311,0.163266 0.1632649,0 0.1632649,-0.08163 0.3265299,-0.163266 0.163265,-0.163265 0.489796,-0.32653 0.897959,-0.32653 0.489796,0 0.734694,0.163265 0.89796,0.244898 0.163265,0.08163 0.163265,0.163265 0.408163,0.163265 l 0,0 c 0.163266,0 0.163266,-0.08163 0.326531,-0.163265 0.163265,-0.08163 0.489796,-0.244898 0.979592,-0.244898 0.489796,0 0.734694,0.163265 0.979592,0.32653 0.163265,0.08163 0.163265,0.163266 0.326531,0.163266 0.163265,0 0.163265,-0.08163 0.32653,-0.163266 0.163266,-0.163265 0.489795,-0.32653 0.897959,-0.32653 0.489796,0 0.734694,0.163265 0.979592,0.244898 0.163265,0.08163 0.163265,0.163265 0.408163,0.163265 0.244898,0 0.163266,0 0.326531,-0.163265 0.163265,-0.163266 0.489796,-0.326531 0.897959,-0.326531 0.489796,0 0.816327,0.163265 0.979592,0.244898 0.163266,0.08163 0.163266,0.163265 0.326531,0.163265 0.163265,0 0.163265,-0.08163 0.326531,-0.163265 0.163265,-0.08163 0.408163,-0.244898 0.897959,-0.244898 0.408164,0 0.816327,0.08163 1.061225,0.244898 0.163265,0.08163 0.244898,0.163265 0.326531,0.163265 0,0 0.08163,0 0.08163,0.08163 l 0,0 0,0 c 0.244898,0.163265 0.08163,0.653061 -0.244898,0.571429 h -0.08163 -0.08163 c 0,0 0,-0.08163 -0.08163,-0.08163 -0.08163,-0.08163 -0.163265,-0.08163 -0.244898,-0.163265 -0.163265,-0.08163 -0.408163,-0.163266 -0.734694,-0.163266 -0.32653,0 -0.408163,0.08163 -0.489796,0.163266 -0.163265,0.08163 -0.408163,0.244898 -0.734694,0.244898 -0.408163,0 -0.571428,-0.163266 -0.734694,-0.244898 -0.163265,-0.08163 -0.244898,-0.163266 -0.571429,-0.163266 -0.32653,0 -0.408163,0.08163 -0.571428,0.163266 -0.163266,0.08163 -0.408164,0.244898 -0.734694,0.244898 -0.408164,0 -0.653062,-0.163266 -0.734694,-0.244898 -0.08163,-0.08163 -0.244898,-0.163266 -0.571429,-0.163266 -0.326531,0 -0.408163,0.08163 -0.571428,0.163266 -0.08163,0.08163 -0.32653,0.32653 -0.734694,0.32653 l 0,0 c -0.408163,0 -0.571429,-0.163265 -0.734694,-0.244898 -0.163265,-0.08163 -0.244898,-0.163265 -0.571429,-0.163265 -0.408163,0 -0.408163,0.08163 -0.571428,0.163265 -0.08163,0.08163 -0.408164,0.244898 -0.734694,0.244898 -0.408164,0 -0.571429,-0.163265 -0.734694,-0.244898 -0.163266,-0.08163 -0.244898,-0.163265 -0.571429,-0.163265 -0.326531,0 -0.408164,0.08163 -0.571429,0.163265 -0.163265,0.08163 -0.408163,0.326531 -0.7346935,0.326531 -0.4081634,0 -0.5714287,-0.244898 -0.7346941,-0.326531 -0.1632652,-0.08163 -0.2448979,-0.163265 -0.5714286,-0.163265 -0.7346939,0 -1.0612246,0.408163 -1.0612246,0.408163 -0.081633,0.163266 -0.4081633,0.163266 -0.489796,0 -0.081633,-0.08163 -0.081633,-0.408163 0.081633,-0.489796 0.1632654,0.08163 0.6530613,-0.489796 1.6326533,-0.489796 l 0,0 0,0 z m -2.2040819,2.693879 c -0.081633,0.08163 -0.081633,0.244898 -0.081633,0.32653 0,0.89796 0.734694,1.551021 1.5510206,1.551021 H 22.192287 c 0.897959,0 1.551021,-0.734694 1.551021,-1.551021 V 19.998997 H 23.580042 6.5188154 c -0.081633,0 -0.081633,0 -0.1632652,-0.08163 l 0,0 0,0 z"/></g></svg>