<svg xmlns="http://www.w3.org/2000/svg" enable-background="new 0 0 32 32" viewBox="0 0 32 32"><path d="M30,16c0-1.1-0.4-2.1-1-3v-1c0-2.8-2.2-5-5-5H8c-2.8,0-5,2.2-5,5v1c-1.3,1.8-1.3,4.2,0,5.9v1c0,2.8,2.2,5,5,5h16
	c2.8,0,5-2.2,5-5v-1C29.6,18.1,30,17.1,30,16z M4,16c0-1.7,1.3-3,3-3h18c1.7,0,3,1.3,3,3s-1.3,3-3,3H7C5.3,19,4,17.7,4,16z M8,9h16
	c1.4,0,2.6,1,2.9,2.4C26.3,11.1,25.6,11,25,11H7c-0.6,0-1.3,0.1-1.9,0.4C5.4,10,6.6,9,8,9z M24,23H8c-1.4,0-2.6-1-2.9-2.4
	C5.7,20.9,6.4,21,7,21h18c0.6,0,1.3-0.1,1.9-0.4C26.6,22,25.4,23,24,23z M7,16c-0.6,0-1-0.4-1-1s0.4-1,1-1c1,0,2,0.5,2.5,1.3
	c0.5,0.5,0.6,0.7,1.1,0.7s0.6-0.2,1.1-0.7c1-1.4,2.9-1.8,4.3-0.8c0.3,0.2,0.6,0.5,0.8,0.8c0.5,0.5,0.6,0.7,1.1,0.7s0.6-0.2,1.1-0.7
	c1-1.4,2.9-1.8,4.3-0.8c0.3,0.2,0.6,0.5,0.8,0.8c0.5,0.5,0.6,0.7,1.1,0.7c0.6,0,1,0.4,1,1s-0.4,1-1,1c-1,0-2-0.5-2.5-1.3
	C22,16.2,21.8,16,21.4,16s-0.6,0.2-1.1,0.7c-1,1.4-2.9,1.8-4.3,0.8c-0.3-0.2-0.6-0.5-0.8-0.8c-0.5-0.5-0.6-0.7-1.1-0.7
	s-0.6,0.2-1.1,0.7c-0.6,0.8-1.5,1.3-2.5,1.3c-1,0-2-0.5-2.5-1.3C7.6,16.2,7.4,16,7,16z"/></svg>