<svg xmlns="http://www.w3.org/2000/svg" width="32" height="32" viewBox="0 0 32 32">
  <g id="logo" transform="translate(0.439 0.439)">
    <rect id="Rectángulo_1" data-name="Rectángulo 1" width="32" height="32" rx="16" transform="translate(-0.439 -0.439)"/>
    <path id="hotdog" d="M23.881,7.683a4.6,4.6,0,0,0-.854-2.561V4.268A4.227,4.227,0,0,0,18.759,0H5.1A4.227,4.227,0,0,0,.832,4.268v.854a4.225,4.225,0,0,0,0,5.036v.854A4.227,4.227,0,0,0,5.1,15.28H18.759a4.227,4.227,0,0,0,4.268-4.268v-.854a4.131,4.131,0,0,0,.854-2.476Zm-22.195,0A2.515,2.515,0,0,1,4.247,5.122H19.612a2.515,2.515,0,0,1,2.561,2.561,2.515,2.515,0,0,1-2.561,2.561H4.247A2.515,2.515,0,0,1,1.686,7.683ZM5.1,1.707H18.759a2.55,2.55,0,0,1,2.476,2.049,3.7,3.7,0,0,0-1.622-.341H4.247a3.7,3.7,0,0,0-1.622.341A2.55,2.55,0,0,1,5.1,1.707ZM18.759,13.658H5.1a2.55,2.55,0,0,1-2.476-2.049,3.7,3.7,0,0,0,1.622.341H19.612a3.7,3.7,0,0,0,1.622-.341A2.55,2.55,0,0,1,18.759,13.658ZM4.247,7.683a.806.806,0,0,1-.854-.854.806.806,0,0,1,.854-.854,2.552,2.552,0,0,1,2.134,1.11c.427.427.512.6.939.6s.512-.171.939-.6A2.627,2.627,0,0,1,11.929,6.4a2.6,2.6,0,0,1,.683.683c.427.427.512.6.939.6s.512-.171.939-.6A2.627,2.627,0,0,1,18.16,6.4a2.6,2.6,0,0,1,.683.683c.427.427.512.6.939.6a.806.806,0,0,1,.854.854.806.806,0,0,1-.854.854,2.552,2.552,0,0,1-2.134-1.11c-.6-.427-.768-.6-1.11-.6s-.512.171-.939.6a2.627,2.627,0,0,1-3.671.683,2.6,2.6,0,0,1-.683-.683c-.427-.427-.512-.6-.939-.6s-.512.171-.939.6A2.669,2.669,0,0,1,7.234,9.39,2.552,2.552,0,0,1,5.1,8.28C4.759,7.854,4.588,7.683,4.247,7.683Z" transform="translate(1.776 18.66) rotate(-45)" fill="#fff"/>
  </g>
</svg>
