<svg xmlns="http://www.w3.org/2000/svg" viewBox="0 0 28.03 36.9"><defs><style>.cls-1{opacity:0.2;}.cls-2{fill:#fff;}</style></defs><g id="Capa_2" data-name="Capa 2"><g id="Capa_1-2" data-name="Capa 1"><g class="cls-1"><ellipse cx="13.99" cy="32.94" rx="11.11" ry="3.96"/></g><path d="M14,2A12,12,0,0,0,2,14c0,9.35,12,17.36,12,17.36s12-8,12-17.36A12,12,0,0,0,14,2Z"/><path class="cls-2" d="M21.05,8.13a3.49,3.49,0,0,0-1.86-.94l-.47-.47a3.28,3.28,0,0,0-4.67,0L6.57,14.2a3.27,3.27,0,0,0,0,4.67l.47.47A3.27,3.27,0,0,0,9.79,22.1l.47.46a3.27,3.27,0,0,0,4.67,0l7.48-7.47a3.27,3.27,0,0,0,0-4.67L21.94,10A3.11,3.11,0,0,0,21.05,8.13ZM8.91,20.27a1.93,1.93,0,0,1,0-2.8l8.41-8.41a2,2,0,0,1,2.8,2.8l-8.41,8.41A1.93,1.93,0,0,1,8.91,20.27ZM7.5,15.14,15,7.66a2,2,0,0,1,2.48-.23,2.89,2.89,0,0,0-1.08.7L8,16.54a2.85,2.85,0,0,0-.7,1.07A2,2,0,0,1,7.5,15.14Zm14-.94-7.47,7.48a2,2,0,0,1-2.48.23,2.85,2.85,0,0,0,1.07-.7l8.41-8.41a2.91,2.91,0,0,0,.71-1.08A2,2,0,0,1,21.52,14.2ZM10.31,18.87a.63.63,0,0,1-.94,0,.62.62,0,0,1,0-.93,2,2,0,0,1,1.78-.56c.47,0,.61,0,.84-.19s.19-.37.19-.84A2,2,0,0,1,13.81,14a1.89,1.89,0,0,1,.75,0c.47,0,.61,0,.84-.19s.19-.37.19-.84a2,2,0,0,1,1.63-2.38,1.89,1.89,0,0,1,.75,0c.47,0,.61,0,.84-.19a.63.63,0,0,1,.94,0,.62.62,0,0,1,0,.93,2,2,0,0,1-1.78.56c-.56.1-.75.1-.93.28s-.19.38-.19.85a2,2,0,0,1-1.64,2.38,1.84,1.84,0,0,1-.74,0c-.47,0-.61,0-.84.19s-.19.37-.19.84a2.08,2.08,0,0,1-.56,1.77,2,2,0,0,1-1.78.56C10.68,18.69,10.49,18.69,10.31,18.87Z"/><path class="cls-2" d="M14,2A12,12,0,0,1,26,14c0,9.35-12,17.36-12,17.36S2,23.36,2,14A12,12,0,0,1,14,2m0-2A14,14,0,0,0,0,14c0,10.3,12.38,18.67,12.91,19l1.1.74L15.12,33C15.65,32.68,28,24.31,28,14A14,14,0,0,0,14,0Z"/></g></g></svg>