<svg id="Grupo_1" data-name="Grupo 1" xmlns="http://www.w3.org/2000/svg" width="512" height="512" viewBox="0 0 512 512">
  <rect id="Rectángulo_1" data-name="Rectángulo 1" width="512" height="512"/>
  <path id="hotdog" d="M391.238,132.216c0-15.3-5.565-29.217-13.913-41.739V76.565C377.326,37.608,346.717,7,307.761,7H85.155C46.2,7,15.59,37.608,15.59,76.565V90.477c-18.087,25.043-18.087,58.434,0,82.086v13.913c0,38.956,30.608,69.564,69.565,69.564H307.761c38.956,0,69.565-30.608,69.565-69.564V172.564A67.328,67.328,0,0,0,391.238,132.216Zm-361.736,0c0-23.652,18.087-41.739,41.739-41.739H321.674c23.652,0,41.739,18.087,41.739,41.739s-18.087,41.739-41.739,41.739H71.242C47.59,173.955,29.5,155.868,29.5,132.216Zm55.652-97.39H307.761c19.478,0,36.174,13.913,40.347,33.391-8.348-4.174-18.087-5.565-26.435-5.565H71.242c-8.348,0-18.087,1.391-26.435,5.565C48.981,48.739,65.677,34.826,85.155,34.826ZM307.761,229.606H85.155c-19.478,0-36.174-13.913-40.347-33.391,8.348,4.174,18.087,5.565,26.435,5.565H321.674c8.348,0,18.087-1.391,26.435-5.565C343.935,215.694,327.239,229.606,307.761,229.606ZM71.242,132.216c-8.348,0-13.913-5.565-13.913-13.913s5.565-13.913,13.913-13.913c13.913,0,27.826,6.956,34.782,18.087,6.956,6.956,8.348,9.739,15.3,9.739s8.348-2.783,15.3-9.739c13.913-19.478,40.347-25.043,59.825-11.13a42.344,42.344,0,0,1,11.13,11.13c6.956,6.956,8.348,9.739,15.3,9.739s8.348-2.783,15.3-9.739c13.913-19.478,40.347-25.043,59.826-11.13a42.344,42.344,0,0,1,11.13,11.13c6.956,6.956,8.348,9.739,15.3,9.739,8.348,0,13.913,5.565,13.913,13.913s-5.565,13.913-13.913,13.913c-13.913,0-27.826-6.956-34.782-18.087-9.739-6.956-12.522-9.739-18.087-9.739s-8.348,2.783-15.3,9.739c-13.913,19.478-40.347,25.043-59.826,11.13a42.344,42.344,0,0,1-11.13-11.13c-6.956-6.956-8.348-9.739-15.3-9.739s-8.348,2.783-15.3,9.739c-8.348,11.13-20.869,18.087-34.782,18.087s-27.826-6.956-34.782-18.087C79.589,135,76.807,132.216,71.242,132.216Z" transform="translate(24.949 302.991) rotate(-45)" fill="#fff"/>
</svg>
