<svg width="156" height="47" viewBox="0 0 156 47" fill="none" xmlns="http://www.w3.org/2000/svg">
<path d="M12.5586 36.1638C9.15545 36.1638 6.25982 34.9697 3.87167 32.5815C1.51338 30.1635 0.334229 27.2828 0.334229 23.9394C0.334229 20.5065 1.5283 17.6108 3.91645 15.2525C6.33445 12.8644 9.21516 11.6703 12.5586 11.6703C15.096 11.6703 17.3647 12.3868 19.3648 13.8196C21.3947 15.2525 22.8575 17.1183 23.753 19.4169L18.4245 20.8945C17.8871 19.7005 17.096 18.7452 16.0512 18.0288C15.0363 17.2825 13.872 16.9093 12.5586 16.9093C10.6779 16.9093 9.08082 17.6108 7.76734 19.0139C6.45386 20.3871 5.79712 22.0289 5.79712 23.9394C5.79712 25.8499 6.45386 27.4918 7.76734 28.865C9.08082 30.2382 10.6779 30.9248 12.5586 30.9248C13.9019 30.9248 15.081 30.5665 16.096 29.8501C17.1408 29.1038 17.917 28.1336 18.4245 26.9395L23.753 28.462C22.8575 30.7606 21.3947 32.6263 19.3648 34.0592C17.3647 35.4622 15.096 36.1638 12.5586 36.1638Z" fill="#4955C2"/>
<path d="M38.6175 36.1638C35.2741 36.1638 32.4083 34.9548 30.0201 32.5368C27.632 30.1188 26.4379 27.2381 26.4379 23.8946C26.4379 20.5214 27.632 17.6407 30.0201 15.2525C32.4083 12.8644 35.2741 11.6703 38.6175 11.6703C41.9907 11.6703 44.8714 12.8793 47.2596 15.2973C49.6477 17.6855 50.8418 20.5512 50.8418 23.8946C50.8418 27.2679 49.6477 30.1635 47.2596 32.5815C44.8714 34.9697 41.9907 36.1638 38.6175 36.1638ZM38.6175 30.8352C40.528 30.8352 42.14 30.1635 43.4535 28.8202C44.767 27.447 45.4237 25.8052 45.4237 23.8946C45.4237 21.9841 44.767 20.3572 43.4535 19.0139C42.14 17.6407 40.528 16.9541 38.6175 16.9541C36.7368 16.9541 35.1397 17.6407 33.8263 19.0139C32.5128 20.3572 31.856 21.9841 31.856 23.8946C31.856 25.8052 32.5128 27.447 33.8263 28.8202C35.1397 30.1635 36.7368 30.8352 38.6175 30.8352Z" fill="#4955C2"/>
<path d="M65.3281 36.1638C62.1041 36.1638 59.3279 34.9548 56.9995 32.5368C54.7009 30.1188 53.5516 27.253 53.5516 23.9394C53.5516 20.5065 54.7009 17.6108 56.9995 15.2525C59.2981 12.8644 62.0743 11.6703 65.3281 11.6703C68.2238 11.6703 70.597 12.6704 72.4478 14.6704V4.46109H78.2689V35.8055H72.4478V33.2532C70.5671 35.1936 68.1939 36.1638 65.3281 36.1638ZM65.9102 30.88C67.7909 30.88 69.4178 30.1934 70.791 28.8202C72.1642 27.447 72.8508 25.8201 72.8508 23.9394C72.8508 22.0588 72.1642 20.4318 70.791 19.0587C69.4178 17.6556 67.7909 16.9541 65.9102 16.9541C63.9699 16.9541 62.328 17.6407 60.9847 19.0139C59.6712 20.3871 59.0145 22.0289 59.0145 23.9394C59.0145 25.8499 59.6712 27.4918 60.9847 28.865C62.328 30.2083 63.9699 30.88 65.9102 30.88Z" fill="#4955C2"/>
<path d="M94.5491 36.1638C91.146 36.1638 88.2504 34.9697 85.8622 32.5815C83.504 30.1635 82.3248 27.2828 82.3248 23.9394C82.3248 20.5065 83.5189 17.6108 85.907 15.2525C88.325 12.8644 91.2057 11.6703 94.5491 11.6703C97.4746 11.6703 100.057 12.6256 102.296 14.5361C104.564 16.4168 105.967 18.7751 106.505 21.611C106.863 23.1931 106.878 24.6857 106.55 26.0888H88.1011C88.4295 27.6411 89.1758 28.8501 90.34 29.7158C91.5042 30.5815 92.9073 31.0143 94.5491 31.0143C97.0268 31.0143 99.0568 30.1934 100.639 28.5515L105.744 29.9396C104.818 31.8203 103.281 33.3278 101.131 34.4622C99.012 35.5966 96.8179 36.1638 94.5491 36.1638ZM88.1011 21.6558H100.863C100.534 20.2826 99.8031 19.1333 98.6687 18.2079C97.5343 17.2825 96.1462 16.8198 94.5044 16.8198C92.8625 16.8198 91.4595 17.2825 90.2952 18.2079C89.1609 19.1333 88.4295 20.2826 88.1011 21.6558Z" fill="#4955C2"/>
<path d="M110.239 35.8055V12.0733H116.06V15.6108C116.836 14.2674 117.971 13.2525 119.463 12.5659C120.956 11.8494 122.777 11.6554 124.926 11.9838V18.2079C122.687 17.4616 120.643 17.6258 118.792 18.7004C116.971 19.7751 116.06 21.4468 116.06 23.7155V35.8055H110.239Z" fill="#4955C2"/>
<path d="M136.767 36.1638C135.782 36.1638 134.812 36.0444 133.857 35.8055C132.901 35.5966 131.946 35.2384 130.991 34.7309C130.066 34.1935 129.304 33.4174 128.707 32.4024C128.14 31.3576 127.856 30.1337 127.856 28.7306C127.827 26.2529 128.662 24.4171 130.364 23.223C132.066 21.9991 134.424 21.3871 137.439 21.3871L144.424 21.3423V20.0885C144.424 18.8945 143.947 18.0138 142.991 17.4466C142.036 16.8795 140.782 16.5959 139.23 16.5959C136.305 16.5959 134.558 17.5511 133.991 19.4616L128.439 19.5064C128.468 17.1481 129.513 15.2525 131.573 13.8196C133.633 12.3868 136.14 11.6703 139.096 11.6703C142.081 11.6703 144.633 12.3868 146.753 13.8196C148.872 15.2525 149.932 17.1183 149.932 19.4169V35.8055H144.424V32.8502C143.768 33.6861 142.767 34.4473 141.424 35.1339C140.111 35.8205 138.558 36.1638 136.767 36.1638ZM137.26 31.3725C139.051 31.3725 140.693 30.8054 142.185 29.671C143.678 28.5068 144.424 27.1187 144.424 25.5067H138.514C136.842 25.5067 135.588 25.8201 134.752 26.447C133.916 27.0739 133.558 27.8799 133.678 28.865C133.857 30.5367 135.051 31.3725 137.26 31.3725Z" fill="#4955C2"/>
<path fill-rule="evenodd" clip-rule="evenodd" d="M26.4457 37.2294C29.6467 40.0943 33.8675 41.8333 38.5006 41.8333C43.1338 41.8333 47.3546 40.0943 50.5556 37.2294L54.0013 41.0792C49.8896 44.7593 44.4537 47 38.5006 47C32.5475 47 27.1116 44.7593 23 41.0792L26.4457 37.2294Z" fill="#4955C2"/>
<path fill-rule="evenodd" clip-rule="evenodd" d="M151.999 10.2706C148.798 7.40566 144.578 5.66665 139.944 5.66665C135.311 5.66665 131.091 7.40566 127.89 10.2706L124.444 6.42077C128.555 2.74074 133.991 0.499987 139.944 0.499986C145.898 0.499986 151.333 2.74074 155.445 6.42077L151.999 10.2706Z" fill="#4955C2"/>
</svg>
